  0
SECTION
  2
HEADER
  9
$ACADVER
  1
AC1009
  9
$INSBASE
 10
0.0
 20
0.0
 30
0.0
  9
$EXTMIN
 10
0.0
 20
0.0
 30
0.0
  9
$EXTMAX
 10
0.0
 20
0.0
 30
0.0
  0
ENDSEC
  0
SECTION
  2
TABLES
  0
TABLE
  2
VPORT
 70
0
  0
ENDTAB
  0
TABLE
  2
LTYPE
 70
1
  0
LTYPE
  2
CONTINUOUS
 70
0
  3
Solid line
 72
65
 73
0
 40
0.0
  0
ENDTAB
  0
TABLE
  2
LAYER
 70
1
  0
LAYER
  2
0
 70
64
 62
7
  6
continuous
  0
ENDTAB
  0
TABLE
  2
STYLE
 70
1
  0
STYLE
  2
STANDARD
 70
0
 40
0
 41
1.0
 50
0.0
 71
0
 42
1
 3
ARIAL.TTF
 4

  0
ENDTAB
  0
TABLE
  2
VIEW
 70
0
  0
ENDTAB
  0
ENDSEC
  0
SECTION
  2
BLOCKS
  0
BLOCK
  8
0
  2
CUT
 70
0
 10
0.0
 20
0.0
 30
0.0
  3
CUT
  0
LINE
  8
0
 62
0
 10
0.0
 20
0.0
 30
0.0
 11
121.9
 21
0.0
 31
0.0
  0
LINE
  8
0
 62
0
 10
0.0
 20
22.9
 30
0.0
 11
0.0
 21
0.0
 31
0.0
  0
LINE
  8
0
 62
0
 10
121.9
 20
0.0
 30
0.0
 11
121.9
 21
22.9
 31
0.0
  0
LINE
  8
0
 62
0
 10
-20.4
 20
22.9
 30
0.0
 11
-7.1054273576e-15
 21
22.9
 31
0.0
  0
LINE
  8
0
 62
0
 10
121.9
 20
22.9
 30
0.0
 11
137.3
 21
22.9
 31
0.0
  0
LINE
  8
0
 62
0
 10
-20.4
 20
75.2
 30
0.0
 11
-20.4
 21
22.9
 31
0.0
  0
LINE
  8
0
 62
0
 10
137.3
 20
22.9
 30
0.0
 11
137.3
 21
75.2
 31
0.0
  0
LINE
  8
0
 62
0
 10
137.3
 20
75.2
 30
0.0
 11
-20.4
 21
75.2
 31
0.0
  0
ARC
  8
0
 62
0
 10
42.7500002171
 20
7.375
 30
0.0
 40
1.175
 50
90.0000032751
 51
-89.9999914122
  0
LINE
  8
0
 62
0
 10
42.75000015
 20
8.55
 30
0.0
 11
84.9500006811
 21
8.55
 31
0.0
  0
LINE
  8
0
 62
0
 10
42.7500003933
 20
6.2
 30
0.0
 11
84.95
 21
6.2
 31
0.0
  0
ARC
  8
0
 62
0
 10
84.9500002171
 20
7.375
 30
0.0
 40
1.175
 50
-90.0000105883
 51
89.9999773759
  0
ARC
  8
0
 62
0
 10
68.74
 20
66.66
 30
0.0
 40
0.25
 50
90.0
 51
-90.0
  0
ARC
  8
0
 62
0
 10
68.74
 20
66.66
 30
0.0
 40
0.25
 50
-90.0
 51
90.0
  0
ARC
  8
0
 62
0
 10
76.36
 20
66.66
 30
0.0
 40
0.25
 50
-90.0
 51
90.0
  0
ARC
  8
0
 62
0
 10
76.36
 20
66.66
 30
0.0
 40
0.25
 50
90.0
 51
-90.0
  0
ARC
  8
0
 62
0
 10
94.94
 20
66.66
 30
0.0
 40
0.25
 50
90.0
 51
-90.0
  0
ARC
  8
0
 62
0
 10
94.94
 20
66.66
 30
0.0
 40
0.25
 50
-90.0
 51
90.0
  0
ARC
  8
0
 62
0
 10
108.04
 20
66.66
 30
0.0
 40
0.25
 50
90.0
 51
-90.0
  0
ARC
  8
0
 62
0
 10
108.04
 20
66.66
 30
0.0
 40
0.25
 50
-90.0
 51
90.0
  0
ARC
  8
0
 62
0
 10
81.84
 20
66.66
 30
0.0
 40
0.25
 50
-90.0
 51
90.0
  0
ARC
  8
0
 62
0
 10
81.84
 20
66.66
 30
0.0
 40
0.25
 50
90.0
 51
-90.0
  0
ARC
  8
0
 62
0
 10
89.46
 20
66.66
 30
0.0
 40
0.25
 50
90.0
 51
-90.0
  0
ARC
  8
0
 62
0
 10
89.46
 20
66.66
 30
0.0
 40
0.25
 50
-90.0
 51
90.0
  0
ARC
  8
0
 62
0
 10
115.66
 20
66.66
 30
0.0
 40
0.25
 50
-90.0
 51
90.0
  0
ARC
  8
0
 62
0
 10
115.66
 20
66.66
 30
0.0
 40
0.25
 50
90.0
 51
-90.0
  0
ARC
  8
0
 62
0
 10
102.56
 20
66.66
 30
0.0
 40
0.25
 50
-90.0
 51
90.0
  0
ARC
  8
0
 62
0
 10
102.56
 20
66.66
 30
0.0
 40
0.25
 50
90.0
 51
-90.0
  0
ARC
  8
0
 62
0
 10
108.04
 20
64.12
 30
0.0
 40
0.25
 50
-90.0
 51
90.0
  0
ARC
  8
0
 62
0
 10
108.04
 20
64.12
 30
0.0
 40
0.25
 50
90.0
 51
-90.0
  0
ARC
  8
0
 62
0
 10
68.74
 20
64.12
 30
0.0
 40
0.25
 50
90.0
 51
-90.0
  0
ARC
  8
0
 62
0
 10
68.74
 20
64.12
 30
0.0
 40
0.25
 50
-90.0
 51
90.0
  0
ARC
  8
0
 62
0
 10
102.56
 20
64.12
 30
0.0
 40
0.25
 50
90.0
 51
-90.0
  0
ARC
  8
0
 62
0
 10
102.56
 20
64.12
 30
0.0
 40
0.25
 50
-90.0
 51
90.0
  0
ARC
  8
0
 62
0
 10
115.66
 20
64.12
 30
0.0
 40
0.25
 50
-90.0
 51
90.0
  0
ARC
  8
0
 62
0
 10
115.66
 20
64.12
 30
0.0
 40
0.25
 50
90.0
 51
-90.0
  0
ARC
  8
0
 62
0
 10
81.84
 20
64.12
 30
0.0
 40
0.25
 50
90.0
 51
-90.0
  0
ARC
  8
0
 62
0
 10
81.84
 20
64.12
 30
0.0
 40
0.25
 50
-90.0
 51
90.0
  0
ARC
  8
0
 62
0
 10
89.46
 20
64.12
 30
0.0
 40
0.25
 50
90.0
 51
-90.0
  0
ARC
  8
0
 62
0
 10
89.46
 20
64.12
 30
0.0
 40
0.25
 50
-90.0
 51
90.0
  0
ARC
  8
0
 62
0
 10
76.36
 20
64.12
 30
0.0
 40
0.25
 50
-90.0
 51
90.0
  0
ARC
  8
0
 62
0
 10
76.36
 20
64.12
 30
0.0
 40
0.25
 50
90.0
 51
-90.0
  0
ARC
  8
0
 62
0
 10
94.94
 20
64.12
 30
0.0
 40
0.25
 50
90.0
 51
-90.0
  0
ARC
  8
0
 62
0
 10
94.94
 20
64.12
 30
0.0
 40
0.25
 50
-90.0
 51
90.0
  0
ARC
  8
0
 62
0
 10
10.86
 20
66.66
 30
0.0
 40
0.25
 50
-90.0
 51
90.0
  0
ARC
  8
0
 62
0
 10
10.86
 20
66.66
 30
0.0
 40
0.25
 50
90.0
 51
-90.0
  0
ARC
  8
0
 62
0
 10
-9.86
 20
66.66
 30
0.0
 40
0.25
 50
-90.0
 51
90.0
  0
ARC
  8
0
 62
0
 10
-9.86
 20
66.66
 30
0.0
 40
0.25
 50
90.0
 51
-90.0
  0
ARC
  8
0
 62
0
 10
3.24
 20
66.66
 30
0.0
 40
0.25
 50
-90.0
 51
90.0
  0
ARC
  8
0
 62
0
 10
3.24
 20
66.66
 30
0.0
 40
0.25
 50
90.0
 51
-90.0
  0
ARC
  8
0
 62
0
 10
-2.24
 20
66.66
 30
0.0
 40
0.25
 50
90.0
 51
-90.0
  0
ARC
  8
0
 62
0
 10
-2.24
 20
66.66
 30
0.0
 40
0.25
 50
-90.0
 51
90.0
  0
ARC
  8
0
 62
0
 10
81.84
 20
53.96
 30
0.0
 40
0.25
 50
90.0
 51
-90.0
  0
ARC
  8
0
 62
0
 10
81.84
 20
53.96
 30
0.0
 40
0.25
 50
-90.0
 51
90.0
  0
ARC
  8
0
 62
0
 10
68.74
 20
61.58
 30
0.0
 40
0.25
 50
90.0
 51
-90.0
  0
ARC
  8
0
 62
0
 10
68.74
 20
61.58
 30
0.0
 40
0.25
 50
-90.0
 51
90.0
  0
ARC
  8
0
 62
0
 10
81.84
 20
56.5
 30
0.0
 40
0.25
 50
90.0
 51
-90.0
  0
ARC
  8
0
 62
0
 10
81.84
 20
56.5
 30
0.0
 40
0.25
 50
-90.0
 51
90.0
  0
ARC
  8
0
 62
0
 10
81.84
 20
59.04
 30
0.0
 40
0.25
 50
-90.0
 51
90.0
  0
ARC
  8
0
 62
0
 10
81.84
 20
59.04
 30
0.0
 40
0.25
 50
90.0
 51
-90.0
  0
ARC
  8
0
 62
0
 10
16.34
 20
66.66
 30
0.0
 40
0.25
 50
90.0
 51
-90.0
  0
ARC
  8
0
 62
0
 10
16.34
 20
66.66
 30
0.0
 40
0.25
 50
-90.0
 51
90.0
  0
ARC
  8
0
 62
0
 10
89.46
 20
59.04
 30
0.0
 40
0.25
 50
90.0
 51
-90.0
  0
ARC
  8
0
 62
0
 10
89.46
 20
59.04
 30
0.0
 40
0.25
 50
-90.0
 51
90.0
  0
ARC
  8
0
 62
0
 10
89.46
 20
56.5
 30
0.0
 40
0.25
 50
-90.0
 51
90.0
  0
ARC
  8
0
 62
0
 10
89.46
 20
56.5
 30
0.0
 40
0.25
 50
90.0
 51
-90.0
  0
ARC
  8
0
 62
0
 10
23.96
 20
66.66
 30
0.0
 40
0.25
 50
90.0
 51
-90.0
  0
ARC
  8
0
 62
0
 10
23.96
 20
66.66
 30
0.0
 40
0.25
 50
-90.0
 51
90.0
  0
ARC
  8
0
 62
0
 10
63.26
 20
66.66
 30
0.0
 40
0.25
 50
-90.0
 51
90.0
  0
ARC
  8
0
 62
0
 10
63.26
 20
66.66
 30
0.0
 40
0.25
 50
90.0
 51
-90.0
  0
ARC
  8
0
 62
0
 10
76.36
 20
59.04
 30
0.0
 40
0.25
 50
-90.0
 51
90.0
  0
ARC
  8
0
 62
0
 10
76.36
 20
59.04
 30
0.0
 40
0.25
 50
90.0
 51
-90.0
  0
ARC
  8
0
 62
0
 10
68.74
 20
59.04
 30
0.0
 40
0.25
 50
-90.0
 51
90.0
  0
ARC
  8
0
 62
0
 10
68.74
 20
59.04
 30
0.0
 40
0.25
 50
90.0
 51
-90.0
  0
ARC
  8
0
 62
0
 10
76.36
 20
61.58
 30
0.0
 40
0.25
 50
90.0
 51
-90.0
  0
ARC
  8
0
 62
0
 10
76.36
 20
61.58
 30
0.0
 40
0.25
 50
-90.0
 51
90.0
  0
ARC
  8
0
 62
0
 10
89.46
 20
53.96
 30
0.0
 40
0.25
 50
-90.0
 51
90.0
  0
ARC
  8
0
 62
0
 10
89.46
 20
53.96
 30
0.0
 40
0.25
 50
90.0
 51
-90.0
  0
ARC
  8
0
 62
0
 10
68.74
 20
53.96
 30
0.0
 40
0.25
 50
90.0
 51
-90.0
  0
ARC
  8
0
 62
0
 10
68.74
 20
53.96
 30
0.0
 40
0.25
 50
-90.0
 51
90.0
  0
ARC
  8
0
 62
0
 10
76.36
 20
56.5
 30
0.0
 40
0.25
 50
-90.0
 51
90.0
  0
ARC
  8
0
 62
0
 10
76.36
 20
56.5
 30
0.0
 40
0.25
 50
90.0
 51
-90.0
  0
ARC
  8
0
 62
0
 10
76.36
 20
53.96
 30
0.0
 40
0.25
 50
-90.0
 51
90.0
  0
ARC
  8
0
 62
0
 10
76.36
 20
53.96
 30
0.0
 40
0.25
 50
90.0
 51
-90.0
  0
ARC
  8
0
 62
0
 10
50.16
 20
66.66
 30
0.0
 40
0.25
 50
90.0
 51
-90.0
  0
ARC
  8
0
 62
0
 10
50.16
 20
66.66
 30
0.0
 40
0.25
 50
-90.0
 51
90.0
  0
ARC
  8
0
 62
0
 10
55.64
 20
66.66
 30
0.0
 40
0.25
 50
90.0
 51
-90.0
  0
ARC
  8
0
 62
0
 10
55.64
 20
66.66
 30
0.0
 40
0.25
 50
-90.0
 51
90.0
  0
ARC
  8
0
 62
0
 10
42.54
 20
66.66
 30
0.0
 40
0.25
 50
-90.0
 51
90.0
  0
ARC
  8
0
 62
0
 10
42.54
 20
66.66
 30
0.0
 40
0.25
 50
90.0
 51
-90.0
  0
ARC
  8
0
 62
0
 10
68.74
 20
56.5
 30
0.0
 40
0.25
 50
90.0
 51
-90.0
  0
ARC
  8
0
 62
0
 10
68.74
 20
56.5
 30
0.0
 40
0.25
 50
-90.0
 51
90.0
  0
ARC
  8
0
 62
0
 10
94.94
 20
56.5
 30
0.0
 40
0.25
 50
-90.0
 51
90.0
  0
ARC
  8
0
 62
0
 10
94.94
 20
56.5
 30
0.0
 40
0.25
 50
90.0
 51
-90.0
  0
ARC
  8
0
 62
0
 10
102.56
 20
59.04
 30
0.0
 40
0.25
 50
-90.0
 51
90.0
  0
ARC
  8
0
 62
0
 10
102.56
 20
59.04
 30
0.0
 40
0.25
 50
90.0
 51
-90.0
  0
ARC
  8
0
 62
0
 10
102.56
 20
56.5
 30
0.0
 40
0.25
 50
90.0
 51
-90.0
  0
ARC
  8
0
 62
0
 10
102.56
 20
56.5
 30
0.0
 40
0.25
 50
-90.0
 51
90.0
  0
ARC
  8
0
 62
0
 10
102.56
 20
53.96
 30
0.0
 40
0.25
 50
90.0
 51
-90.0
  0
ARC
  8
0
 62
0
 10
102.56
 20
53.96
 30
0.0
 40
0.25
 50
-90.0
 51
90.0
  0
ARC
  8
0
 62
0
 10
102.56
 20
61.58
 30
0.0
 40
0.25
 50
90.0
 51
-90.0
  0
ARC
  8
0
 62
0
 10
102.56
 20
61.58
 30
0.0
 40
0.25
 50
-90.0
 51
90.0
  0
ARC
  8
0
 62
0
 10
108.04
 20
53.96
 30
0.0
 40
0.25
 50
90.0
 51
-90.0
  0
ARC
  8
0
 62
0
 10
108.04
 20
53.96
 30
0.0
 40
0.25
 50
-90.0
 51
90.0
  0
ARC
  8
0
 62
0
 10
29.44
 20
66.66
 30
0.0
 40
0.25
 50
-90.0
 51
90.0
  0
ARC
  8
0
 62
0
 10
29.44
 20
66.66
 30
0.0
 40
0.25
 50
90.0
 51
-90.0
  0
ARC
  8
0
 62
0
 10
37.06
 20
66.66
 30
0.0
 40
0.25
 50
90.0
 51
-90.0
  0
ARC
  8
0
 62
0
 10
37.06
 20
66.66
 30
0.0
 40
0.25
 50
-90.0
 51
90.0
  0
ARC
  8
0
 62
0
 10
108.04
 20
56.5
 30
0.0
 40
0.25
 50
90.0
 51
-90.0
  0
ARC
  8
0
 62
0
 10
108.04
 20
56.5
 30
0.0
 40
0.25
 50
-90.0
 51
90.0
  0
ARC
  8
0
 62
0
 10
108.04
 20
59.04
 30
0.0
 40
0.25
 50
-90.0
 51
90.0
  0
ARC
  8
0
 62
0
 10
108.04
 20
59.04
 30
0.0
 40
0.25
 50
90.0
 51
-90.0
  0
ARC
  8
0
 62
0
 10
108.04
 20
61.58
 30
0.0
 40
0.25
 50
-90.0
 51
90.0
  0
ARC
  8
0
 62
0
 10
108.04
 20
61.58
 30
0.0
 40
0.25
 50
90.0
 51
-90.0
  0
ARC
  8
0
 62
0
 10
115.66
 20
61.58
 30
0.0
 40
0.25
 50
90.0
 51
-90.0
  0
ARC
  8
0
 62
0
 10
115.66
 20
61.58
 30
0.0
 40
0.25
 50
-90.0
 51
90.0
  0
ARC
  8
0
 62
0
 10
115.66
 20
59.04
 30
0.0
 40
0.25
 50
-90.0
 51
90.0
  0
ARC
  8
0
 62
0
 10
115.66
 20
59.04
 30
0.0
 40
0.25
 50
90.0
 51
-90.0
  0
ARC
  8
0
 62
0
 10
115.66
 20
53.96
 30
0.0
 40
0.25
 50
-90.0
 51
90.0
  0
ARC
  8
0
 62
0
 10
115.66
 20
53.96
 30
0.0
 40
0.25
 50
90.0
 51
-90.0
  0
ARC
  8
0
 62
0
 10
115.66
 20
56.5
 30
0.0
 40
0.25
 50
-90.0
 51
90.0
  0
ARC
  8
0
 62
0
 10
115.66
 20
56.5
 30
0.0
 40
0.25
 50
90.0
 51
-90.0
  0
ARC
  8
0
 62
0
 10
94.94
 20
61.58
 30
0.0
 40
0.25
 50
-90.0
 51
90.0
  0
ARC
  8
0
 62
0
 10
94.94
 20
61.58
 30
0.0
 40
0.25
 50
90.0
 51
-90.0
  0
ARC
  8
0
 62
0
 10
94.94
 20
53.96
 30
0.0
 40
0.25
 50
-90.0
 51
90.0
  0
ARC
  8
0
 62
0
 10
94.94
 20
53.96
 30
0.0
 40
0.25
 50
90.0
 51
-90.0
  0
ARC
  8
0
 62
0
 10
89.46
 20
61.58
 30
0.0
 40
0.25
 50
-90.0
 51
90.0
  0
ARC
  8
0
 62
0
 10
89.46
 20
61.58
 30
0.0
 40
0.25
 50
90.0
 51
-90.0
  0
ARC
  8
0
 62
0
 10
81.84
 20
61.58
 30
0.0
 40
0.25
 50
90.0
 51
-90.0
  0
ARC
  8
0
 62
0
 10
81.84
 20
61.58
 30
0.0
 40
0.25
 50
-90.0
 51
90.0
  0
ARC
  8
0
 62
0
 10
94.94
 20
59.04
 30
0.0
 40
0.25
 50
-90.0
 51
90.0
  0
ARC
  8
0
 62
0
 10
94.94
 20
59.04
 30
0.0
 40
0.25
 50
90.0
 51
-90.0
  0
ARC
  8
0
 62
0
 10
-9.86
 20
64.12
 30
0.0
 40
0.25
 50
-90.0
 51
90.0
  0
ARC
  8
0
 62
0
 10
-9.86
 20
64.12
 30
0.0
 40
0.25
 50
90.0
 51
-90.0
  0
ARC
  8
0
 62
0
 10
10.86
 20
64.12
 30
0.0
 40
0.25
 50
-90.0
 51
90.0
  0
ARC
  8
0
 62
0
 10
10.86
 20
64.12
 30
0.0
 40
0.25
 50
90.0
 51
-90.0
  0
ARC
  8
0
 62
0
 10
3.24
 20
64.12
 30
0.0
 40
0.25
 50
90.0
 51
-90.0
  0
ARC
  8
0
 62
0
 10
3.24
 20
64.12
 30
0.0
 40
0.25
 50
-90.0
 51
90.0
  0
ARC
  8
0
 62
0
 10
-2.24
 20
64.12
 30
0.0
 40
0.25
 50
90.0
 51
-90.0
  0
ARC
  8
0
 62
0
 10
-2.24
 20
64.12
 30
0.0
 40
0.25
 50
-90.0
 51
90.0
  0
ARC
  8
0
 62
0
 10
50.16
 20
64.12
 30
0.0
 40
0.25
 50
-90.0
 51
90.0
  0
ARC
  8
0
 62
0
 10
50.16
 20
64.12
 30
0.0
 40
0.25
 50
90.0
 51
-90.0
  0
ARC
  8
0
 62
0
 10
42.54
 20
64.12
 30
0.0
 40
0.25
 50
90.0
 51
-90.0
  0
ARC
  8
0
 62
0
 10
42.54
 20
64.12
 30
0.0
 40
0.25
 50
-90.0
 51
90.0
  0
ARC
  8
0
 62
0
 10
55.64
 20
64.12
 30
0.0
 40
0.25
 50
90.0
 51
-90.0
  0
ARC
  8
0
 62
0
 10
55.64
 20
64.12
 30
0.0
 40
0.25
 50
-90.0
 51
90.0
  0
ARC
  8
0
 62
0
 10
37.06
 20
64.12
 30
0.0
 40
0.25
 50
90.0
 51
-90.0
  0
ARC
  8
0
 62
0
 10
37.06
 20
64.12
 30
0.0
 40
0.25
 50
-90.0
 51
90.0
  0
ARC
  8
0
 62
0
 10
16.34
 20
64.12
 30
0.0
 40
0.25
 50
-90.0
 51
90.0
  0
ARC
  8
0
 62
0
 10
16.34
 20
64.12
 30
0.0
 40
0.25
 50
90.0
 51
-90.0
  0
ARC
  8
0
 62
0
 10
23.96
 20
64.12
 30
0.0
 40
0.25
 50
90.0
 51
-90.0
  0
ARC
  8
0
 62
0
 10
23.96
 20
64.12
 30
0.0
 40
0.25
 50
-90.0
 51
90.0
  0
ARC
  8
0
 62
0
 10
29.44
 20
64.12
 30
0.0
 40
0.25
 50
90.0
 51
-90.0
  0
ARC
  8
0
 62
0
 10
29.44
 20
64.12
 30
0.0
 40
0.25
 50
-90.0
 51
90.0
  0
ARC
  8
0
 62
0
 10
63.26
 20
64.12
 30
0.0
 40
0.25
 50
90.0
 51
-90.0
  0
ARC
  8
0
 62
0
 10
63.26
 20
64.12
 30
0.0
 40
0.25
 50
-90.0
 51
90.0
  0
ARC
  8
0
 62
0
 10
10.86
 20
53.96
 30
0.0
 40
0.25
 50
90.0
 51
-90.0
  0
ARC
  8
0
 62
0
 10
10.86
 20
53.96
 30
0.0
 40
0.25
 50
-90.0
 51
90.0
  0
ARC
  8
0
 62
0
 10
-9.86
 20
53.96
 30
0.0
 40
0.25
 50
90.0
 51
-90.0
  0
ARC
  8
0
 62
0
 10
-9.86
 20
53.96
 30
0.0
 40
0.25
 50
-90.0
 51
90.0
  0
ARC
  8
0
 62
0
 10
-9.86
 20
56.5
 30
0.0
 40
0.25
 50
90.0
 51
-90.0
  0
ARC
  8
0
 62
0
 10
-9.86
 20
56.5
 30
0.0
 40
0.25
 50
-90.0
 51
90.0
  0
ARC
  8
0
 62
0
 10
10.86
 20
56.5
 30
0.0
 40
0.25
 50
-90.0
 51
90.0
  0
ARC
  8
0
 62
0
 10
10.86
 20
56.5
 30
0.0
 40
0.25
 50
90.0
 51
-90.0
  0
ARC
  8
0
 62
0
 10
10.86
 20
61.58
 30
0.0
 40
0.25
 50
-90.0
 51
90.0
  0
ARC
  8
0
 62
0
 10
10.86
 20
61.58
 30
0.0
 40
0.25
 50
90.0
 51
-90.0
  0
ARC
  8
0
 62
0
 10
10.86
 20
59.04
 30
0.0
 40
0.25
 50
90.0
 51
-90.0
  0
ARC
  8
0
 62
0
 10
10.86
 20
59.04
 30
0.0
 40
0.25
 50
-90.0
 51
90.0
  0
ARC
  8
0
 62
0
 10
-9.86
 20
59.04
 30
0.0
 40
0.25
 50
-90.0
 51
90.0
  0
ARC
  8
0
 62
0
 10
-9.86
 20
59.04
 30
0.0
 40
0.25
 50
90.0
 51
-90.0
  0
ARC
  8
0
 62
0
 10
-9.86
 20
61.58
 30
0.0
 40
0.25
 50
90.0
 51
-90.0
  0
ARC
  8
0
 62
0
 10
-9.86
 20
61.58
 30
0.0
 40
0.25
 50
-90.0
 51
90.0
  0
ARC
  8
0
 62
0
 10
3.24
 20
53.96
 30
0.0
 40
0.25
 50
90.0
 51
-90.0
  0
ARC
  8
0
 62
0
 10
3.24
 20
53.96
 30
0.0
 40
0.25
 50
-90.0
 51
90.0
  0
ARC
  8
0
 62
0
 10
3.24
 20
56.5
 30
0.0
 40
0.25
 50
90.0
 51
-90.0
  0
ARC
  8
0
 62
0
 10
3.24
 20
56.5
 30
0.0
 40
0.25
 50
-90.0
 51
90.0
  0
ARC
  8
0
 62
0
 10
3.24
 20
59.04
 30
0.0
 40
0.25
 50
90.0
 51
-90.0
  0
ARC
  8
0
 62
0
 10
3.24
 20
59.04
 30
0.0
 40
0.25
 50
-90.0
 51
90.0
  0
ARC
  8
0
 62
0
 10
3.24
 20
61.58
 30
0.0
 40
0.25
 50
90.0
 51
-90.0
  0
ARC
  8
0
 62
0
 10
3.24
 20
61.58
 30
0.0
 40
0.25
 50
-90.0
 51
90.0
  0
ARC
  8
0
 62
0
 10
-2.24
 20
56.5
 30
0.0
 40
0.25
 50
90.0
 51
-90.0
  0
ARC
  8
0
 62
0
 10
-2.24
 20
56.5
 30
0.0
 40
0.25
 50
-90.0
 51
90.0
  0
ARC
  8
0
 62
0
 10
-2.24
 20
53.96
 30
0.0
 40
0.25
 50
90.0
 51
-90.0
  0
ARC
  8
0
 62
0
 10
-2.24
 20
53.96
 30
0.0
 40
0.25
 50
-90.0
 51
90.0
  0
ARC
  8
0
 62
0
 10
-2.24
 20
61.58
 30
0.0
 40
0.25
 50
90.0
 51
-90.0
  0
ARC
  8
0
 62
0
 10
-2.24
 20
61.58
 30
0.0
 40
0.25
 50
-90.0
 51
90.0
  0
ARC
  8
0
 62
0
 10
-2.24
 20
59.04
 30
0.0
 40
0.25
 50
-90.0
 51
90.0
  0
ARC
  8
0
 62
0
 10
-2.24
 20
59.04
 30
0.0
 40
0.25
 50
90.0
 51
-90.0
  0
ARC
  8
0
 62
0
 10
29.44
 20
61.58
 30
0.0
 40
0.25
 50
-90.0
 51
90.0
  0
ARC
  8
0
 62
0
 10
29.44
 20
61.58
 30
0.0
 40
0.25
 50
90.0
 51
-90.0
  0
ARC
  8
0
 62
0
 10
16.34
 20
59.04
 30
0.0
 40
0.25
 50
-90.0
 51
90.0
  0
ARC
  8
0
 62
0
 10
16.34
 20
59.04
 30
0.0
 40
0.25
 50
90.0
 51
-90.0
  0
ARC
  8
0
 62
0
 10
37.06
 20
61.58
 30
0.0
 40
0.25
 50
90.0
 51
-90.0
  0
ARC
  8
0
 62
0
 10
37.06
 20
61.58
 30
0.0
 40
0.25
 50
-90.0
 51
90.0
  0
ARC
  8
0
 62
0
 10
37.06
 20
53.96
 30
0.0
 40
0.25
 50
-90.0
 51
90.0
  0
ARC
  8
0
 62
0
 10
37.06
 20
53.96
 30
0.0
 40
0.25
 50
90.0
 51
-90.0
  0
ARC
  8
0
 62
0
 10
37.06
 20
56.5
 30
0.0
 40
0.25
 50
-90.0
 51
90.0
  0
ARC
  8
0
 62
0
 10
37.06
 20
56.5
 30
0.0
 40
0.25
 50
90.0
 51
-90.0
  0
ARC
  8
0
 62
0
 10
29.44
 20
56.5
 30
0.0
 40
0.25
 50
90.0
 51
-90.0
  0
ARC
  8
0
 62
0
 10
29.44
 20
56.5
 30
0.0
 40
0.25
 50
-90.0
 51
90.0
  0
ARC
  8
0
 62
0
 10
29.44
 20
53.96
 30
0.0
 40
0.25
 50
-90.0
 51
90.0
  0
ARC
  8
0
 62
0
 10
29.44
 20
53.96
 30
0.0
 40
0.25
 50
90.0
 51
-90.0
  0
ARC
  8
0
 62
0
 10
55.64
 20
56.5
 30
0.0
 40
0.25
 50
-90.0
 51
90.0
  0
ARC
  8
0
 62
0
 10
55.64
 20
56.5
 30
0.0
 40
0.25
 50
90.0
 51
-90.0
  0
ARC
  8
0
 62
0
 10
42.54
 20
61.58
 30
0.0
 40
0.25
 50
-90.0
 51
90.0
  0
ARC
  8
0
 62
0
 10
42.54
 20
61.58
 30
0.0
 40
0.25
 50
90.0
 51
-90.0
  0
ARC
  8
0
 62
0
 10
42.54
 20
59.04
 30
0.0
 40
0.25
 50
90.0
 51
-90.0
  0
ARC
  8
0
 62
0
 10
42.54
 20
59.04
 30
0.0
 40
0.25
 50
-90.0
 51
90.0
  0
ARC
  8
0
 62
0
 10
63.26
 20
56.5
 30
0.0
 40
0.25
 50
90.0
 51
-90.0
  0
ARC
  8
0
 62
0
 10
63.26
 20
56.5
 30
0.0
 40
0.25
 50
-90.0
 51
90.0
  0
ARC
  8
0
 62
0
 10
50.16
 20
61.58
 30
0.0
 40
0.25
 50
90.0
 51
-90.0
  0
ARC
  8
0
 62
0
 10
50.16
 20
61.58
 30
0.0
 40
0.25
 50
-90.0
 51
90.0
  0
ARC
  8
0
 62
0
 10
50.16
 20
59.04
 30
0.0
 40
0.25
 50
90.0
 51
-90.0
  0
ARC
  8
0
 62
0
 10
50.16
 20
59.04
 30
0.0
 40
0.25
 50
-90.0
 51
90.0
  0
ARC
  8
0
 62
0
 10
55.64
 20
61.58
 30
0.0
 40
0.25
 50
-90.0
 51
90.0
  0
ARC
  8
0
 62
0
 10
55.64
 20
61.58
 30
0.0
 40
0.25
 50
90.0
 51
-90.0
  0
ARC
  8
0
 62
0
 10
55.64
 20
59.04
 30
0.0
 40
0.25
 50
-90.0
 51
90.0
  0
ARC
  8
0
 62
0
 10
55.64
 20
59.04
 30
0.0
 40
0.25
 50
90.0
 51
-90.0
  0
ARC
  8
0
 62
0
 10
42.54
 20
56.5
 30
0.0
 40
0.25
 50
90.0
 51
-90.0
  0
ARC
  8
0
 62
0
 10
42.54
 20
56.5
 30
0.0
 40
0.25
 50
-90.0
 51
90.0
  0
ARC
  8
0
 62
0
 10
50.16
 20
56.5
 30
0.0
 40
0.25
 50
90.0
 51
-90.0
  0
ARC
  8
0
 62
0
 10
50.16
 20
56.5
 30
0.0
 40
0.25
 50
-90.0
 51
90.0
  0
ARC
  8
0
 62
0
 10
55.64
 20
53.96
 30
0.0
 40
0.25
 50
90.0
 51
-90.0
  0
ARC
  8
0
 62
0
 10
55.64
 20
53.96
 30
0.0
 40
0.25
 50
-90.0
 51
90.0
  0
ARC
  8
0
 62
0
 10
50.16
 20
53.96
 30
0.0
 40
0.25
 50
-90.0
 51
90.0
  0
ARC
  8
0
 62
0
 10
50.16
 20
53.96
 30
0.0
 40
0.25
 50
90.0
 51
-90.0
  0
ARC
  8
0
 62
0
 10
63.26
 20
53.96
 30
0.0
 40
0.25
 50
90.0
 51
-90.0
  0
ARC
  8
0
 62
0
 10
63.26
 20
53.96
 30
0.0
 40
0.25
 50
-90.0
 51
90.0
  0
ARC
  8
0
 62
0
 10
37.06
 20
59.04
 30
0.0
 40
0.25
 50
90.0
 51
-90.0
  0
ARC
  8
0
 62
0
 10
37.06
 20
59.04
 30
0.0
 40
0.25
 50
-90.0
 51
90.0
  0
ARC
  8
0
 62
0
 10
63.26
 20
61.58
 30
0.0
 40
0.25
 50
-90.0
 51
90.0
  0
ARC
  8
0
 62
0
 10
63.26
 20
61.58
 30
0.0
 40
0.25
 50
90.0
 51
-90.0
  0
ARC
  8
0
 62
0
 10
42.54
 20
53.96
 30
0.0
 40
0.25
 50
90.0
 51
-90.0
  0
ARC
  8
0
 62
0
 10
42.54
 20
53.96
 30
0.0
 40
0.25
 50
-90.0
 51
90.0
  0
ARC
  8
0
 62
0
 10
29.44
 20
59.04
 30
0.0
 40
0.25
 50
-90.0
 51
90.0
  0
ARC
  8
0
 62
0
 10
29.44
 20
59.04
 30
0.0
 40
0.25
 50
90.0
 51
-90.0
  0
ARC
  8
0
 62
0
 10
23.96
 20
59.04
 30
0.0
 40
0.25
 50
90.0
 51
-90.0
  0
ARC
  8
0
 62
0
 10
23.96
 20
59.04
 30
0.0
 40
0.25
 50
-90.0
 51
90.0
  0
ARC
  8
0
 62
0
 10
23.96
 20
61.58
 30
0.0
 40
0.25
 50
-90.0
 51
90.0
  0
ARC
  8
0
 62
0
 10
23.96
 20
61.58
 30
0.0
 40
0.25
 50
90.0
 51
-90.0
  0
ARC
  8
0
 62
0
 10
23.96
 20
56.5
 30
0.0
 40
0.25
 50
90.0
 51
-90.0
  0
ARC
  8
0
 62
0
 10
23.96
 20
56.5
 30
0.0
 40
0.25
 50
-90.0
 51
90.0
  0
ARC
  8
0
 62
0
 10
23.96
 20
53.96
 30
0.0
 40
0.25
 50
-90.0
 51
90.0
  0
ARC
  8
0
 62
0
 10
23.96
 20
53.96
 30
0.0
 40
0.25
 50
90.0
 51
-90.0
  0
ARC
  8
0
 62
0
 10
16.34
 20
56.5
 30
0.0
 40
0.25
 50
-90.0
 51
90.0
  0
ARC
  8
0
 62
0
 10
16.34
 20
56.5
 30
0.0
 40
0.25
 50
90.0
 51
-90.0
  0
ARC
  8
0
 62
0
 10
16.34
 20
53.96
 30
0.0
 40
0.25
 50
-90.0
 51
90.0
  0
ARC
  8
0
 62
0
 10
16.34
 20
53.96
 30
0.0
 40
0.25
 50
90.0
 51
-90.0
  0
ARC
  8
0
 62
0
 10
63.26
 20
59.04
 30
0.0
 40
0.25
 50
90.0
 51
-90.0
  0
ARC
  8
0
 62
0
 10
63.26
 20
59.04
 30
0.0
 40
0.25
 50
-90.0
 51
90.0
  0
ARC
  8
0
 62
0
 10
16.34
 20
61.58
 30
0.0
 40
0.25
 50
-90.0
 51
90.0
  0
ARC
  8
0
 62
0
 10
16.34
 20
61.58
 30
0.0
 40
0.25
 50
90.0
 51
-90.0
  0
ENDBLK
  0
ENDSEC
  0
SECTION
  2
ENTITIES
  0
INSERT
  2
CUT
  8
0
 62
0
 10
0.0
 20
0.0
 30
0.0
  0
ENDSEC
  0
EOF
